<svg width="37" xmlns="http://www.w3.org/2000/svg" height="49" id="screenshot-19fd692c-5781-801a-8006-e4e07585404e" viewBox="0 0 37 49" xmlns:xlink="http://www.w3.org/1999/xlink" fill="none" version="1.1"><g id="shape-19fd692c-5781-801a-8006-e4e07585404e" rx="0" ry="0"><g id="shape-19fd692c-5781-801a-8006-e4e06b72cb3d" style="opacity: 1;"><g class="fills" id="fills-19fd692c-5781-801a-8006-e4e06b72cb3d"><rect rx="10" ry="10" x="0" y="0" transform="matrix(1.000000, 0.000000, 0.000000, 1.000000, 0.000000, 0.000000)" width="37" height="43.02439024390242"/></g><g id="strokes-4e96ef97-7117-8039-8007-3d86d0f20f6b-19fd692c-5781-801a-8006-e4e06b72cb3d" class="strokes"><g class="inner-stroke-shape" transform="matrix(1.000000, 0.000000, 0.000000, 1.000000, 0.000000, 0.000000)"><defs><clipPath id="inner-stroke-render-2-19fd692c-5781-801a-8006-e4e06b72cb3d-0"><use href="#stroke-shape-render-2-19fd692c-5781-801a-8006-e4e06b72cb3d-0"/></clipPath><rect rx="10" ry="10" x="0" y="0" width="37" height="43.02439024390242" id="stroke-shape-render-2-19fd692c-5781-801a-8006-e4e06b72cb3d-0" style="fill: none; stroke-width: 10; stroke: rgb(255, 255, 255); stroke-opacity: 1;"/></defs><use href="#stroke-shape-render-2-19fd692c-5781-801a-8006-e4e06b72cb3d-0" clip-path="url('#inner-stroke-render-2-19fd692c-5781-801a-8006-e4e06b72cb3d-0')"/></g></g></g><g id="shape-19fd692c-5781-801a-8006-e4e0b55afa98" style="opacity: 1;"><g class="fills" id="fills-19fd692c-5781-801a-8006-e4e0b55afa98"><path d="M0,5.9755859375C0,2.677734375,3.188232421875,0,7.115478515625,0C19.580810546875,5.9755859375,22.769287109375,8.6533203125,22.769287109375,11.951416015625L22.769287109375,43.0244140625C22.769287109375,46.322265625,19.580810546875,49,15.65380859375,49C3.188232421875,43.0244140625,0,40.3466796875,0,37.048583984375L0,5.9755859375" style="fill: rgb(255, 255, 255); fill-opacity: 1;"/></g><g id="strokes-4e96ef97-7117-8039-8007-3d86d0f37268-19fd692c-5781-801a-8006-e4e0b55afa98" class="strokes"><g class="inner-stroke-shape"><defs><clipPath id="inner-stroke-render-3-19fd692c-5781-801a-8006-e4e0b55afa98-0"><use href="#stroke-shape-render-3-19fd692c-5781-801a-8006-e4e0b55afa98-0"/></clipPath><path d="M0,5.9755859375C0,2.677734375,3.188232421875,0,7.115478515625,0C19.580810546875,5.9755859375,22.769287109375,8.6533203125,22.769287109375,11.951416015625L22.769287109375,43.0244140625C22.769287109375,46.322265625,19.580810546875,49,15.65380859375,49C3.188232421875,43.0244140625,0,40.3466796875,0,37.048583984375L0,5.9755859375" id="stroke-shape-render-3-19fd692c-5781-801a-8006-e4e0b55afa98-0" style="fill: none; stroke-width: 10; stroke: rgb(255, 255, 255); stroke-opacity: 1;"/></defs><use href="#stroke-shape-render-3-19fd692c-5781-801a-8006-e4e0b55afa98-0" clip-path="url('#inner-stroke-render-3-19fd692c-5781-801a-8006-e4e0b55afa98-0')"/></g></g></g></g></svg>